<mxfile modified="2023-02-25T21:52:51.684Z" host="app.diagrams.net" agent="5.0 (Macintosh; Intel Mac OS X 10_15_7) AppleWebKit/537.36 (KHTML, like Gecko) Chrome/110.0.0.0 Safari/537.36" etag="Hof4_U3muX7GivCqXljH" version="20.8.23" type="github">
  <diagram id="f106602c-feb2-e66a-4537-3a34d633f6aa" name="Page-1">
    <mxGraphModel dx="510" dy="359" grid="0" gridSize="10" guides="1" tooltips="1" connect="1" arrows="1" fold="1" page="0" pageScale="1" pageWidth="1169" pageHeight="827" background="none" math="0" shadow="0">
      <root>
        <mxCell id="0" />
        <mxCell id="1" parent="0" />
        <mxCell id="9vJiYLKIISm6_TSQ1ZCC-1010" value="MySQL" style="sketch=0;pointerEvents=1;shadow=0;dashed=0;html=1;strokeColor=none;labelPosition=center;verticalLabelPosition=bottom;verticalAlign=top;outlineConnect=0;align=center;shape=mxgraph.office.servers.virtual_database_server;fillColor=#2072B8;" parent="1" vertex="1">
          <mxGeometry x="320" y="350" width="70" height="110" as="geometry" />
        </mxCell>
        <mxCell id="I6gsbFjo42ZIX-rjy7hb-1" value="" style="rounded=0;orthogonalLoop=1;jettySize=auto;html=1;dashed=1;startArrow=classic;startFill=1;" edge="1" parent="1">
          <mxGeometry relative="1" as="geometry">
            <mxPoint x="381" y="279" as="sourcePoint" />
            <mxPoint x="350" y="340" as="targetPoint" />
          </mxGeometry>
        </mxCell>
        <mxCell id="I6gsbFjo42ZIX-rjy7hb-2" value="" style="rounded=0;orthogonalLoop=1;jettySize=auto;html=1;dashed=1;startArrow=classic;startFill=1;" edge="1" parent="1">
          <mxGeometry relative="1" as="geometry">
            <mxPoint x="328" y="277" as="sourcePoint" />
            <mxPoint x="338" y="340" as="targetPoint" />
          </mxGeometry>
        </mxCell>
        <mxCell id="I6gsbFjo42ZIX-rjy7hb-10" value="" style="group" vertex="1" connectable="0" parent="1">
          <mxGeometry x="300" y="140" width="50" height="115" as="geometry" />
        </mxCell>
        <mxCell id="I6gsbFjo42ZIX-rjy7hb-8" value="k3s-01&lt;br&gt;" style="sketch=0;pointerEvents=1;shadow=0;dashed=0;html=1;strokeColor=none;fillColor=#505050;labelPosition=center;verticalLabelPosition=bottom;verticalAlign=top;outlineConnect=0;align=center;shape=mxgraph.office.servers.server_generic;" vertex="1" parent="I6gsbFjo42ZIX-rjy7hb-10">
          <mxGeometry width="50" height="115" as="geometry" />
        </mxCell>
        <mxCell id="I6gsbFjo42ZIX-rjy7hb-21" value="" style="sketch=0;html=1;dashed=0;whitespace=wrap;fillColor=#2875E2;strokeColor=#ffffff;points=[[0.005,0.63,0],[0.1,0.2,0],[0.9,0.2,0],[0.5,0,0],[0.995,0.63,0],[0.72,0.99,0],[0.5,1,0],[0.28,0.99,0]];verticalLabelPosition=bottom;align=center;verticalAlign=top;shape=mxgraph.kubernetes.icon;prIcon=kubelet" vertex="1" parent="I6gsbFjo42ZIX-rjy7hb-10">
          <mxGeometry x="5" y="32.5" width="40" height="50" as="geometry" />
        </mxCell>
        <mxCell id="I6gsbFjo42ZIX-rjy7hb-22" value="" style="sketch=0;html=1;dashed=0;whitespace=wrap;fillColor=#2875E2;strokeColor=#ffffff;points=[[0.005,0.63,0],[0.1,0.2,0],[0.9,0.2,0],[0.5,0,0],[0.995,0.63,0],[0.72,0.99,0],[0.5,1,0],[0.28,0.99,0]];verticalLabelPosition=bottom;align=center;verticalAlign=top;shape=mxgraph.kubernetes.icon;prIcon=api" vertex="1" parent="I6gsbFjo42ZIX-rjy7hb-10">
          <mxGeometry x="2.5" width="45" height="42" as="geometry" />
        </mxCell>
        <mxCell id="I6gsbFjo42ZIX-rjy7hb-17" value="" style="rounded=0;orthogonalLoop=1;jettySize=auto;html=1;startArrow=classic;startFill=1;" edge="1" parent="1">
          <mxGeometry relative="1" as="geometry">
            <mxPoint x="455" y="194.64" as="sourcePoint" />
            <mxPoint x="415" y="194.64" as="targetPoint" />
          </mxGeometry>
        </mxCell>
        <mxCell id="I6gsbFjo42ZIX-rjy7hb-16" value="k3s-03" style="sketch=0;pointerEvents=1;shadow=0;dashed=0;html=1;strokeColor=none;fillColor=#505050;labelPosition=center;verticalLabelPosition=bottom;verticalAlign=top;outlineConnect=0;align=center;shape=mxgraph.office.servers.server_generic;resizeWidth=1;resizeHeight=1;" vertex="1" parent="1">
          <mxGeometry x="460" y="140" width="50" height="110" as="geometry" />
        </mxCell>
        <mxCell id="I6gsbFjo42ZIX-rjy7hb-18" value="" style="sketch=0;html=1;dashed=0;whitespace=wrap;fillColor=#2875E2;strokeColor=#ffffff;points=[[0.005,0.63,0],[0.1,0.2,0],[0.9,0.2,0],[0.5,0,0],[0.995,0.63,0],[0.72,0.99,0],[0.5,1,0],[0.28,0.99,0]];verticalLabelPosition=bottom;align=center;verticalAlign=top;shape=mxgraph.kubernetes.icon;prIcon=kubelet" vertex="1" parent="1">
          <mxGeometry x="465" y="172.5" width="40" height="50" as="geometry" />
        </mxCell>
        <mxCell id="I6gsbFjo42ZIX-rjy7hb-12" value="k3s-02" style="sketch=0;pointerEvents=1;shadow=0;dashed=0;html=1;strokeColor=none;fillColor=#505050;labelPosition=center;verticalLabelPosition=bottom;verticalAlign=top;outlineConnect=0;align=center;shape=mxgraph.office.servers.server_generic;" vertex="1" parent="1">
          <mxGeometry x="360" y="140" width="50" height="115" as="geometry" />
        </mxCell>
        <mxCell id="I6gsbFjo42ZIX-rjy7hb-19" value="" style="sketch=0;html=1;dashed=0;whitespace=wrap;fillColor=#2875E2;strokeColor=#ffffff;points=[[0.005,0.63,0],[0.1,0.2,0],[0.9,0.2,0],[0.5,0,0],[0.995,0.63,0],[0.72,0.99,0],[0.5,1,0],[0.28,0.99,0]];verticalLabelPosition=bottom;align=center;verticalAlign=top;shape=mxgraph.kubernetes.icon;prIcon=kubelet" vertex="1" parent="1">
          <mxGeometry x="365" y="172.5" width="40" height="50" as="geometry" />
        </mxCell>
        <mxCell id="I6gsbFjo42ZIX-rjy7hb-20" value="" style="sketch=0;html=1;dashed=0;whitespace=wrap;fillColor=#2875E2;strokeColor=#ffffff;points=[[0.005,0.63,0],[0.1,0.2,0],[0.9,0.2,0],[0.5,0,0],[0.995,0.63,0],[0.72,0.99,0],[0.5,1,0],[0.28,0.99,0]];verticalLabelPosition=bottom;align=center;verticalAlign=top;shape=mxgraph.kubernetes.icon;prIcon=api" vertex="1" parent="1">
          <mxGeometry x="362.5" y="140" width="45" height="42" as="geometry" />
        </mxCell>
        <mxCell id="I6gsbFjo42ZIX-rjy7hb-23" value="" style="sketch=0;html=1;dashed=0;whitespace=wrap;fillColor=#2875E2;strokeColor=#ffffff;points=[[0.005,0.63,0],[0.1,0.2,0],[0.9,0.2,0],[0.5,0,0],[0.995,0.63,0],[0.72,0.99,0],[0.5,1,0],[0.28,0.99,0]];verticalLabelPosition=bottom;align=center;verticalAlign=top;shape=mxgraph.kubernetes.icon;prIcon=etcd" vertex="1" parent="1">
          <mxGeometry x="322.5" y="364" width="40" height="50" as="geometry" />
        </mxCell>
      </root>
    </mxGraphModel>
  </diagram>
</mxfile>
